<svg width="157" height="163" fill="none" xmlns="http://www.w3.org/2000/svg"><circle opacity=".1" cx="100.861" cy="106.57" r="56.139" fill="#07086C"/><circle opacity=".1" cx="53.285" cy="97.055" r="53.285" fill="#07086C"/><circle opacity=".1" cx="90.394" cy="53.285" r="53.285" fill="#07086C"/><circle cx="81.139" cy="82.139" r="56.139" fill="#07086C"/><circle cx="81.139" cy="82.139" r="56.139" fill="url(#paint0_linear_6_23)"/><path d="M56.426 65A2.41 2.41 0 0054 67.407v30.508c0 1.32 1.08 2.406 2.426 2.406h25.782l-2.085 3.579c-.358.616.207 1.355.902 1.18l3.628-.943.974 3.616c.186.691 1.123.814 1.484.194l4.444-7.626h2.731l4.438 7.626c.361.62 1.297.497 1.484-.194l.98-3.616 3.622.943c.697.183 1.27-.561.908-1.18l-2.092-3.589a2.414 2.414 0 002.201-2.396V67.407c0-1.343-1.102-2.407-2.434-2.407H56.426zm0 1.607h46.967c.463 0 .813.357.813.8v30.508a.8.8 0 01-.813.8h-.696l-2.798-4.809a7.949 7.949 0 001.085-4.022c0-4.424-3.63-8.03-8.093-8.03-4.462 0-8.1 3.606-8.1 8.03 0 1.482.41 2.878 1.12 4.072l-2.772 4.759H56.426a.797.797 0 01-.806-.8V67.407c0-.443.344-.8.806-.8zm17.82 3.205c-1.082 0-1.082 1.582 0 1.606H85.58c1.09 0 1.09-1.582 0-1.606H74.246zm-12.96 5.625H98.54c1.085 0 1.085-1.606 0-1.606H61.286c-1.08 0-1.08 1.606 0 1.606zm0 2.405c-1.08 0-1.08 1.607 0 1.607H98.54c1.081 0 1.081-1.607 0-1.607H61.286zm31.605 5.618c3.556 0 6.48 2.868 6.48 6.424 0 3.557-2.924 6.426-6.48 6.426-3.587 0-6.48-2.87-6.48-6.426s2.893-6.424 6.48-6.424zm-.732 1.831l-.946 2.35-2.447.206c-.7.06-.983.968-.449 1.443l1.862 1.66-.565 2.476c-.164.712.582 1.274 1.183.892l2.096-1.326 2.096 1.323c.6.379 1.342-.181 1.181-.89l-.568-2.478 1.862-1.66c.532-.476.248-1.382-.453-1.441l-2.446-.207-.948-2.35a.762.762 0 00-.73-.504c-.341 0-.59.193-.728.506zm.73 2.448l.403.996c.113.282.37.476.664.502l1.037.086-.787.704a.84.84 0 00-.255.812l.24 1.052-.888-.561a.767.767 0 00-.824 0l-.888.561.24-1.049a.84.84 0 00-.255-.815l-.791-.701 1.037-.09a.794.794 0 00.668-.501l.4-.996zm-31.603 6.158c-1.077 0-1.077 1.605 0 1.605h11.34c1.087 0 1.087-1.605 0-1.605h-11.34zm37.563 1.42l4.497 7.724-2.529-.657a.81.81 0 00-.986.568l-.681 2.513-4.514-7.744a8.091 8.091 0 004.213-2.403zm-11.884.04a8.112 8.112 0 004.224 2.378l-4.497 7.73-.682-2.513a.811.811 0 00-.992-.568l-2.529.657 4.476-7.685zm5.956 2.623l.43.738h-.86l.43-.738z" fill="#fff"/><defs><linearGradient id="paint0_linear_6_23" x1="81.139" y1="26" x2="81.139" y2="138.279" gradientUnits="userSpaceOnUse"><stop stop-color="#040A57"/><stop offset="1" stop-color="#3A23E6"/></linearGradient></defs></svg>