<svg width="157" height="163" fill="none" xmlns="http://www.w3.org/2000/svg"><circle opacity=".1" cx="100.861" cy="106.57" r="56.139" fill="#07086C"/><circle opacity=".1" cx="53.285" cy="97.055" r="53.285" fill="#07086C"/><circle opacity=".1" cx="90.394" cy="53.285" r="53.285" fill="#07086C"/><circle cx="81.139" cy="82.139" r="56.139" fill="#07086C"/><circle cx="81.139" cy="82.139" r="56.139" fill="url(#paint0_linear_6_47)"/><path d="M105.523 69.16L81.385 57.09a.861.861 0 00-.77 0L56.477 69.16a.862.862 0 00-.477.771V94.07a.862.862 0 00.477.776l24.138 12.069a.859.859 0 00.77 0l24.138-12.069a.86.86 0 00.477-.776V69.931a.865.865 0 00-.477-.771zM81 81.037l-6.739-3.37 21.54-11.442 7.414 3.706L81 81.037zm-13.635-6.819l21.54-11.442 5 2.5L72.366 76.72l-5.002-2.501zm-1.02 1.419l5.172 2.586v6.869l-1.977-1.977a.862.862 0 00-.609-.252h-2.586v-7.226zM81 58.827l6.01 3.001-21.54 11.444-6.68-3.34L81 58.825zm-23.276 12.5l6.897 3.448v8.95a.862.862 0 00.862.862h3.091l3.196 3.195a.862.862 0 001.471-.61v-8.087l6.897 3.448v22.21L57.724 93.537v-22.21zm24.138 33.416v-22.21l22.414-11.207v22.21l-22.414 11.207z" fill="#fff"/><defs><linearGradient id="paint0_linear_6_47" x1="81.139" y1="26" x2="81.139" y2="138.279" gradientUnits="userSpaceOnUse"><stop stop-color="#040A57"/><stop offset="1" stop-color="#3A23E6"/></linearGradient></defs></svg>