<svg width="157" height="163" fill="none" xmlns="http://www.w3.org/2000/svg"><circle opacity=".1" cx="100.861" cy="106.57" r="56.139" fill="#07086C"/><circle opacity=".1" cx="53.285" cy="97.055" r="53.285" fill="#07086C"/><circle opacity=".1" cx="90.394" cy="53.285" r="53.285" fill="#07086C"/><circle cx="81.139" cy="82.139" r="56.139" fill="url(#paint0_linear_6_59)"/><path d="M69.667 89.833c-2.758 0-5 2.243-5 5 0 2.758 2.242 5 5 5 2.757 0 5-2.242 5-5 0-2.757-2.243-5-5-5zm0 8.334a3.337 3.337 0 01-3.333-3.334 3.337 3.337 0 013.333-3.333A3.337 3.337 0 0173 94.833a3.337 3.337 0 01-3.333 3.334zM98 89.833c-2.757 0-5 2.243-5 5 0 2.758 2.243 5 5 5 2.758 0 5-2.242 5-5 0-2.757-2.242-5-5-5zm0 8.334a3.337 3.337 0 01-3.333-3.334A3.337 3.337 0 0198 91.5a3.336 3.336 0 013.333 3.333A3.336 3.336 0 0198 98.167z" fill="#fff"/><path d="M107.868 85.216l-7.5-11.667a.835.835 0 00-.701-.382H90.5a.833.833 0 00-.833.833v20.833c0 .461.373.834.833.834h3.334V94h-2.5V74.834h7.878l7.122 11.078V94h-4.167v1.667h5a.832.832 0 00.833-.834v-9.166a.83.83 0 00-.132-.451z" fill="#fff"/><path d="M94.667 84v-5.833h6.666V76.5h-7.5a.833.833 0 00-.833.833v7.5c0 .461.373.834.833.834h12.5V84H94.667zM90.5 67.333H58.833a.834.834 0 00-.833.834v26.666c0 .461.373.834.833.834H65.5V94h-5.833V69h30v25H73.833v1.667H90.5c.46 0 .833-.373.833-.834V68.168a.833.833 0 00-.833-.834z" fill="#fff"/><path d="M63.833 90.667h-5v1.666h5v-1.666zm25.834 0H75.5v1.666h14.167v-1.666zm17.5 0h-3.333v1.666h3.333v-1.666zm-16.667-20H61.333v1.666H90.5v-1.666zM70.5 94h-1.667v1.667H70.5V94zm28.334 0h-1.667v1.667h1.667V94zM73 64H61.333v1.667H73V64zm-13.333 0H58v1.667h1.667V64z" fill="#fff"/><defs><linearGradient id="paint0_linear_6_59" x1="81.139" y1="26" x2="81.139" y2="138.279" gradientUnits="userSpaceOnUse"><stop stop-color="#040A57"/><stop offset="1" stop-color="#3A23E6"/></linearGradient></defs></svg>