<svg width="157" height="163" fill="none" xmlns="http://www.w3.org/2000/svg"><circle opacity=".1" cx="100.861" cy="106.57" r="56.139" fill="#07086C"/><circle opacity=".1" cx="53.285" cy="97.055" r="53.285" fill="#07086C"/><circle opacity=".1" cx="90.394" cy="53.285" r="53.285" fill="#07086C"/><circle cx="80.879" cy="81.83" r="56.139" fill="#07086C"/><circle cx="80.879" cy="81.83" r="56.139" fill="url(#paint0_linear_6_71)"/><path d="M55.59 90.973h13.269v12.5a2.5 2.5 0 002.5 2.5h20a2.5 2.5 0 002.5-2.5v-20a2.5 2.5 0 00-2.5-2.5h-12.5v-13.27a1.748 1.748 0 00-.52-1.24 1.726 1.726 0 00-1.211-.49h-20.77a2.5 2.5 0 00-2.5 2.5v20.769c.002.466.189.913.52 1.24a1.73 1.73 0 001.211.49zm19.935 0h.834a2.5 2.5 0 002.5-2.5v-.834h8.333v11.667H75.525v-8.333zm1.667-2.5c0 .46-.373.833-.833.833H58.903l18.289-18.288v17.454zm14.167-5.834c.46 0 .833.373.833.834v20c0 .46-.373.833-.833.833h-20a.833.833 0 01-.834-.833v-12.5h3.334v8.333c0 .92.746 1.667 1.666 1.667h11.667c.92 0 1.667-.747 1.667-1.667V87.639c0-.92-.747-1.666-1.667-1.666h-8.333v-3.334h12.5zM77.192 67.703v.958L56.547 89.306h-.958l-.064-.064v-1.27L75.854 67.64h1.274l.064.064zm-20.833-.064h17.138L55.525 85.611V68.472c0-.46.373-.833.834-.833zM86.162 56.1a1.667 1.667 0 00-1.833.378l-5.47 5.816a1.667 1.667 0 00-.018 2.34l5.505 5.85a1.666 1.666 0 002.845-1.178v-2.5h5.834v6.666h-2.5a1.668 1.668 0 00-1.16 2.864l5.815 5.47c.314.314.74.49 1.185.49.432.002.847-.168 1.153-.472l5.852-5.507a1.667 1.667 0 00-1.178-2.844h-2.5V62.638a2.5 2.5 0 00-2.5-2.5h-10v-2.5c0-.674-.407-1.282-1.03-1.54zm11.03 5.706c.46 0 .833.373.833.833v11.667c0 .46.373.833.833.833l3.352-.017-5.87 5.487-5.815-5.47h3.333c.46 0 .833-.373.833-.833v-7.5c0-.92-.746-1.667-1.666-1.667h-6.667a.834.834 0 00-.833.834l.017 3.35-5.487-5.868 5.47-5.816v3.333c0 .46.373.834.833.834h10.834z" fill="#fff"/><defs><linearGradient id="paint0_linear_6_71" x1="80.879" y1="25.691" x2="80.879" y2="137.97" gradientUnits="userSpaceOnUse"><stop stop-color="#040A57"/><stop offset="1" stop-color="#3A23E6"/></linearGradient></defs></svg>