<svg width="157" height="163" fill="none" xmlns="http://www.w3.org/2000/svg"><circle opacity=".1" cx="100.861" cy="106.57" r="56.139" fill="#07086C"/><circle opacity=".1" cx="53.285" cy="97.055" r="53.285" fill="#07086C"/><circle opacity=".1" cx="90.394" cy="53.285" r="53.285" fill="#07086C"/><circle cx="80.879" cy="81.83" r="56.139" fill="#07086C"/><circle cx="80.879" cy="81.83" r="56.139" fill="url(#paint0_linear_6_83)"/><path d="M67.333 101.833h-1.667v1.667h1.667v-1.667z" fill="#fff"/><path d="M84.832 91.833H70.666v-12.5a.833.833 0 00-.834-.833h-15a.833.833 0 00-.833.833V106a.832.832 0 00.833.833h30a.835.835 0 00.834-.833V92.666a.833.833 0 00-.834-.833zM75.666 93.5h3.333v3.333h-3.333V93.5zm-15-13.334h3.333V83.5h-3.333v-3.334zm-5 0h3.333v4.167a.833.833 0 00.833.833h5a.834.834 0 00.834-.833v-4.167h3.333v11.667H55.666V80.166zm5 13.334h3.333v3.333h-3.333V93.5zm-5 0h3.333v4.166a.833.833 0 00.833.834h5a.833.833 0 00.834-.834V93.5h3.333v11.666H55.666V93.5zm28.333 11.666H70.666V93.5h3.333v4.166a.833.833 0 00.833.834h5a.833.833 0 00.834-.834V93.5h3.333v11.666z" fill="#fff"/><path d="M82.333 101.833h-1.667v1.667h1.667v-1.667zm-15-13.333h-1.667v1.666h1.667V88.5z" fill="#fff"/><path d="M102.97 66.81a.829.829 0 00.612-.088.836.836 0 00.417-.741v-3.315a.831.831 0 00-.638-.81l-24.166-5.833a.831.831 0 00-.391 0l-24.167 5.833a.833.833 0 00-.638.81v3.31a.834.834 0 001.029.834l1.471-.355v10.378h1.667v-10.78l20.833-5.03 20.833 5.03v39.113h-5v-32.5a.833.833 0 00-.833-.833h-30a.833.833 0 00-.833.833V76a.833.833 0 00.833.833h29.167V78.5H72.332v1.666h20.834v1.667H72.332V83.5h20.834v1.666H72.332v1.667h20.834v18.333h-5.834v1.667H104v-1.667h-2.5V66.455l1.471.355zm-38.138 8.356V73.5h28.334v1.666H64.832zM79 59.333a.831.831 0 00-.195.023l-23.138 5.585v-1.618L79 57.69l23.333 5.633v1.618l-23.137-5.585a.83.83 0 00-.196-.023z" fill="#fff"/><path d="M80.665 69.333a2.5 2.5 0 100-5h-3.333a2.5 2.5 0 000 5h3.333zm-4.166-2.5a.834.834 0 01.833-.833h3.333a.833.833 0 110 1.666h-3.333a.834.834 0 01-.833-.833z" fill="#fff"/><defs><linearGradient id="paint0_linear_6_83" x1="80.879" y1="25.691" x2="80.879" y2="137.97" gradientUnits="userSpaceOnUse"><stop stop-color="#040A57"/><stop offset="1" stop-color="#3A23E6"/></linearGradient></defs></svg>