<svg width="157" height="163" fill="none" xmlns="http://www.w3.org/2000/svg"><circle opacity=".1" cx="100.861" cy="106.57" r="56.139" fill="#07086C"/><circle opacity=".1" cx="53.285" cy="97.055" r="53.285" fill="#07086C"/><circle opacity=".1" cx="90.394" cy="53.285" r="53.285" fill="#07086C"/><circle cx="81.139" cy="82.139" r="56.139" fill="#07086C"/><circle cx="81.139" cy="82.139" r="56.139" fill="url(#paint0_linear_6_95)"/><path d="M91.674 76.524c2.54-3.653 4.18-8.26 4.39-12.235h1.483c.47 0 .852-.382.852-.853v-5.584a.852.852 0 00-.852-.852H63.852a.852.852 0 00-.852.852v5.584c0 .471.382.853.852.853h1.484c.21 3.975 1.85 8.582 4.388 12.234 1.69 2.431 3.64 4.296 5.72 5.478-2.079 1.18-4.03 3.042-5.72 5.475-2.538 3.653-4.178 8.26-4.388 12.235h-1.484a.853.853 0 00-.852.853v5.584c0 .471.382.852.852.852h33.695c.47 0 .852-.381.852-.852v-5.584a.852.852 0 00-.852-.853h-1.484c-.21-3.975-1.85-8.582-4.388-12.234-1.689-2.432-3.642-4.296-5.724-5.475 2.083-1.184 4.037-3.048 5.723-5.478zm-26.97-13.94v-3.88h31.99v3.88m0 38.832v3.879h-31.99v-3.879m18.953-20.21c-.722.246-.72 1.35.002 1.595 2.387.899 4.675 2.852 6.616 5.648 2.349 3.38 3.873 7.614 4.084 11.262H67.04c.21-3.647 1.735-7.883 4.083-11.262 1.943-2.797 4.229-4.75 6.612-5.648.721-.246.723-1.349 0-1.595-2.383-.904-4.67-2.859-6.612-5.655-2.348-3.38-3.872-7.614-4.083-11.262h27.317c-.21 3.647-1.735 7.883-4.084 11.262-1.939 2.794-4.227 4.749-6.617 5.655z" fill="#fff"/><path d="M69.815 97.4c0 .47.382.852.853.852H90.73c.47 0 .853-.382.853-.853a5.388 5.388 0 00-5.383-5.381H75.197a5.387 5.387 0 00-5.382 5.381zm19.964-.853H71.62a3.684 3.684 0 013.578-2.825h11.004a3.682 3.682 0 013.577 2.825zm-.218-28.954H71.838a.852.852 0 00-.853.852c0 5.331 4.333 11.77 9.715 11.77 5.38 0 9.714-6.44 9.714-11.77a.852.852 0 00-.853-.852zM80.7 78.51c-4.047 0-7.55-4.87-7.968-9.213h15.936c-.42 4.343-3.922 9.213-7.968 9.213zm0 5.762c.47 0 .852-.381.852-.852V82a.852.852 0 10-1.704 0v1.42c0 .47.382.852.852.852zm-.852 3.812a.852.852 0 101.704 0v-.982a.852.852 0 10-1.704 0v.982z" fill="#fff"/><defs><linearGradient id="paint0_linear_6_95" x1="81.139" y1="26" x2="81.139" y2="138.279" gradientUnits="userSpaceOnUse"><stop stop-color="#040A57"/><stop offset="1" stop-color="#3A23E6"/></linearGradient></defs></svg>