<svg width="33" height="33" fill="none" xmlns="http://www.w3.org/2000/svg"><circle cx="16.5" cy="16.5" r="16.5" fill="#fff"/><path d="M23.662 20.453c-.041-.123-.3-.303-.777-.541a25.931 25.931 0 00-.551-.307c-.239-.13-.455-.248-.649-.358a21.592 21.592 0 01-.547-.316c-.027-.02-.112-.08-.255-.179a2.871 2.871 0 00-.363-.22.668.668 0 00-.291-.071c-.136 0-.306.097-.51.291a4.982 4.982 0 00-.563.634c-.17.228-.35.439-.54.633-.192.194-.348.291-.47.291a.695.695 0 01-.23-.05 2.372 2.372 0 01-.21-.088 3.773 3.773 0 01-.245-.143 6.283 6.283 0 00-.195-.117c-.933-.518-1.733-1.11-2.4-1.778-.668-.668-1.26-1.468-1.778-2.4a6.17 6.17 0 00-.118-.195 3.651 3.651 0 01-.143-.245 2.196 2.196 0 01-.087-.21.691.691 0 01-.05-.23c0-.122.096-.279.29-.47.195-.19.406-.37.634-.54.228-.17.44-.358.633-.562.194-.205.292-.375.292-.511a.667.667 0 00-.072-.291 2.84 2.84 0 00-.22-.363 13.795 13.795 0 00-.178-.256 22.43 22.43 0 01-.317-.546 51.17 51.17 0 01-.358-.649 24.33 24.33 0 00-.306-.551c-.238-.477-.419-.736-.542-.777a.573.573 0 00-.214-.03c-.184 0-.424.034-.72.102-.297.068-.53.14-.7.214-.34.143-.702.559-1.083 1.246-.348.64-.521 1.274-.521 1.9 0 .184.012.363.035.537.024.174.067.37.128.588.061.217.11.38.148.485.038.105.107.294.21.567.102.272.163.439.183.5a9.25 9.25 0 00.848 1.788c.538.872 1.272 1.773 2.202 2.702.93.93 1.83 1.664 2.702 2.202.525.327 1.12.61 1.788.848.062.02.228.082.5.184.273.102.462.172.568.21.105.037.267.086.485.148.218.061.414.104.587.128a4 4 0 00.537.035c.627 0 1.26-.174 1.9-.52.688-.382 1.103-.743 1.246-1.084.076-.17.147-.403.215-.7.068-.296.102-.536.102-.72a.569.569 0 00-.03-.215z" fill="#07086C"/></svg>