<svg xmlns="http://www.w3.org/2000/svg" xmlns:xlink="http://www.w3.org/1999/xlink"><defs>
<linearGradient id="paint0_linear_6_23" x1="81.1394" y1="26" x2="81.1394" y2="138.279" gradientUnits="userSpaceOnUse">
<stop stop-color="#040A57"/>
<stop offset="1" stop-color="#3A23E6"/>
</linearGradient>

<linearGradient id="paint0_linear_6_47" x1="81.1394" y1="26" x2="81.1394" y2="138.279" gradientUnits="userSpaceOnUse">
<stop stop-color="#040A57"/>
<stop offset="1" stop-color="#3A23E6"/>
</linearGradient>

<linearGradient id="paint0_linear_6_59" x1="81.1394" y1="26" x2="81.1394" y2="138.279" gradientUnits="userSpaceOnUse">
<stop stop-color="#040A57"/>
<stop offset="1" stop-color="#3A23E6"/>
</linearGradient>

<linearGradient id="paint0_linear_6_71" x1="80.8786" y1="25.6909" x2="80.8786" y2="137.97" gradientUnits="userSpaceOnUse">
<stop stop-color="#040A57"/>
<stop offset="1" stop-color="#3A23E6"/>
</linearGradient>

<linearGradient id="paint0_linear_6_83" x1="80.8786" y1="25.6909" x2="80.8786" y2="137.97" gradientUnits="userSpaceOnUse">
<stop stop-color="#040A57"/>
<stop offset="1" stop-color="#3A23E6"/>
</linearGradient>

<linearGradient id="paint0_linear_6_95" x1="81.1394" y1="26" x2="81.1394" y2="138.279" gradientUnits="userSpaceOnUse">
<stop stop-color="#040A57"/>
<stop offset="1" stop-color="#3A23E6"/>
</linearGradient>
</defs><symbol id="1" viewBox="0 0 157 163"><g>
<circle opacity="0.1" cx="100.861" cy="106.57" r="56.1394"/>
<circle opacity="0.1" cx="53.2848" cy="97.0546" r="53.2848"/>
<circle opacity="0.1" cx="90.3942" cy="53.2848" r="53.2848"/>
<circle cx="81.1394" cy="82.1394" r="56.1394"/>
<circle cx="81.1394" cy="82.1394" r="56.1394"/>
<path d="M56.4262 65C55.0943 65 54 66.0599 54 67.4069V97.9154C54 99.2357 55.0809 100.321 56.4262 100.321H82.2077L80.1231 103.9C79.7652 104.516 80.3303 105.255 81.0247 105.08L84.6528 104.137L85.6271 107.753C85.8134 108.444 86.7495 108.567 87.1106 107.947L91.5549 100.321H94.2863L98.7243 107.947C99.0853 108.567 100.021 108.444 100.208 107.753L101.188 104.137L104.81 105.08C105.507 105.263 106.08 104.519 105.718 103.9L103.626 100.311C104.874 100.193 105.827 99.1591 105.827 97.9154V67.4069C105.827 66.0643 104.725 65 103.393 65H56.4262ZM56.4262 66.6072H103.393C103.856 66.6072 104.206 66.9639 104.206 67.4069V97.9154C104.206 98.3615 103.849 98.715 103.393 98.715H102.697L99.8994 93.906C100.591 92.7237 100.984 91.3454 100.984 89.8841C100.984 85.4598 97.354 81.8544 92.8913 81.8544C88.4287 81.8544 84.7904 85.4598 84.7904 89.8841C84.7904 91.3664 85.201 92.7624 85.9118 93.9562L83.1392 98.715H56.4262C55.9888 98.715 55.6195 98.374 55.6195 97.9154V67.4069C55.6195 66.9639 55.9635 66.6072 56.4262 66.6072ZM74.246 69.8122C73.1641 69.8122 73.1641 71.394 74.246 71.4178H85.5796C86.6694 71.4178 86.6694 69.8361 85.5796 69.8122H74.246ZM61.2864 75.4366H98.5392C99.6244 75.4366 99.6244 73.8309 98.5392 73.8309H61.2864C60.2062 73.8309 60.2062 75.4366 61.2864 75.4366ZM61.2864 77.8419C60.2056 77.8419 60.2056 79.4491 61.2864 79.4491H98.5392C99.62 79.4491 99.62 77.8419 98.5392 77.8419H61.2864ZM92.8913 83.46C96.4471 83.46 99.3711 86.3275 99.3711 89.8841C99.3711 93.4406 96.4471 96.3097 92.8913 96.3097C89.3039 96.3097 86.4116 93.4406 86.4116 89.8841C86.4116 86.3275 89.3039 83.46 92.8913 83.46ZM92.1591 85.2914L91.2133 87.6418L88.7665 87.8473C88.0658 87.9077 87.7832 88.8154 88.3174 89.2898L90.1789 90.9503L89.6143 93.4262C89.4498 94.1375 90.196 94.7002 90.7973 94.3184L92.8929 92.9919L94.9885 94.3152C95.5887 94.6935 96.3312 94.1338 96.17 93.4246L95.6022 90.9472L97.4637 89.2867C97.996 88.8109 97.7116 87.9049 97.0114 87.8457L94.5647 87.6387L93.6173 85.2883C93.4911 84.9764 93.2288 84.7854 92.8874 84.7854C92.5459 84.7854 92.2969 84.9778 92.1591 85.2914ZM92.8897 87.7391L93.2915 88.7347C93.4054 89.0175 93.6614 89.2109 93.9557 89.2365L94.9933 89.3227L94.2056 90.0268C93.981 90.2268 93.8829 90.5401 93.951 90.839L94.1916 91.8911L93.3027 91.3298C93.0497 91.1697 92.7317 91.1697 92.4787 91.3298L91.5914 91.8911L91.8302 90.8421C91.8996 90.5423 91.8012 90.2274 91.5756 90.0268L90.7848 89.3259L91.8223 89.2365C92.1178 89.2122 92.3754 89.0185 92.4898 88.7348L92.8897 87.7391ZM61.2864 93.8966C60.2091 93.8966 60.2091 95.5022 61.2864 95.5022H72.6264C73.713 95.5022 73.713 93.8966 72.6264 93.8966H61.2864ZM98.8489 95.3179L103.346 103.041L100.817 102.384C100.387 102.273 99.9473 102.527 99.8314 102.952L99.1497 105.465L94.6358 97.7209C96.2843 97.3595 97.7451 96.5105 98.8489 95.3179ZM86.9651 95.3564C88.0757 96.539 89.5406 97.3834 91.1895 97.735L86.6915 105.465L86.0098 102.952C85.894 102.524 85.4501 102.27 85.0182 102.384L82.4892 103.041L86.9651 95.3564ZM92.9214 97.9796L93.3516 98.7182H92.4912L92.9214 97.9796Z"/>

</g></symbol><symbol id="2" viewBox="0 0 157 163"><g>
<circle opacity="0.1" cx="100.861" cy="106.57" r="56.1394"/>
<circle opacity="0.1" cx="53.2848" cy="97.0546" r="53.2848"/>
<circle opacity="0.1" cx="90.3942" cy="53.2848" r="53.2848"/>
<circle cx="81.1394" cy="82.1394" r="56.1394"/>
<circle cx="81.1394" cy="82.1394" r="56.1394"/>
<path d="M105.523 69.1599L81.3853 57.0909C81.2657 57.0311 81.1338 57 81 57C80.8662 57 80.7343 57.0311 80.6147 57.0909L56.4767 69.1599C56.3334 69.2315 56.2129 69.3416 56.1287 69.4779C56.0445 69.6142 55.9999 69.7712 56 69.9314V94.0693C55.9991 94.2303 56.0433 94.3882 56.1276 94.5254C56.2118 94.6625 56.3328 94.7733 56.4767 94.8452L80.6147 106.914C80.7343 106.974 80.8662 107.005 81 107.005C81.1338 107.005 81.2657 106.974 81.3853 106.914L105.523 94.8452C105.667 94.7733 105.788 94.6625 105.872 94.5254C105.957 94.3882 106.001 94.2303 106 94.0693V69.9314C106 69.7712 105.955 69.6142 105.871 69.4779C105.787 69.3416 105.667 69.2315 105.523 69.1599ZM81 81.0366L74.2612 77.6668L95.8009 66.2245L103.215 69.9314L81 81.0366ZM67.3647 74.2185L88.9043 62.7763L93.9043 65.2763L72.3672 76.7202L67.3647 74.2185ZM66.3448 75.6366L71.5172 78.2228V85.0918L69.5405 83.115C69.3789 82.9534 69.1597 82.8625 68.931 82.8625H66.3448V75.6366ZM81 58.8263L87.0103 61.828L65.4707 73.2719L58.7897 69.9314L81 58.8263ZM57.7242 71.3263L64.6207 74.7745V83.7245C64.6207 83.9532 64.7115 84.1724 64.8732 84.3341C65.0349 84.4958 65.2541 84.5866 65.4828 84.5866H68.5741L71.7698 87.7823C71.8904 87.9028 72.044 87.9849 72.2112 88.0181C72.3784 88.0514 72.5517 88.0343 72.7092 87.9691C72.8667 87.9038 73.0013 87.7934 73.096 87.6516C73.1908 87.5099 73.2413 87.3433 73.2414 87.1728V79.0849L80.1379 82.5331V104.743L57.7242 93.5366V71.3263ZM81.8621 104.743V82.5331L104.276 71.3263V93.5366L81.8621 104.743Z"/>

</g></symbol><symbol id="3" viewBox="0 0 157 163"><g>
<circle opacity="0.1" cx="100.861" cy="106.57" r="56.1394"/>
<circle opacity="0.1" cx="53.2848" cy="97.0546" r="53.2848"/>
<circle opacity="0.1" cx="90.3942" cy="53.2848" r="53.2848"/>
<circle cx="81.1394" cy="82.1394" r="56.1394"/>
<path d="M69.667 89.8334C66.9095 89.8334 64.667 92.0759 64.667 94.8334C64.667 97.591 66.9095 99.8335 69.667 99.8335C72.4245 99.8335 74.667 97.591 74.667 94.8334C74.667 92.0759 72.4244 89.8334 69.667 89.8334ZM69.667 98.1668C67.8286 98.1668 66.3337 96.6717 66.3337 94.8334C66.3337 92.9951 67.8287 91.5001 69.667 91.5001C71.5053 91.5001 73.0003 92.9952 73.0003 94.8334C73.0003 96.6717 71.5053 98.1668 69.667 98.1668Z"/>
<path d="M98 89.8334C95.2425 89.8334 93 92.0759 93 94.8334C93 97.591 95.2425 99.8335 98 99.8335C100.758 99.8335 103 97.591 103 94.8334C103 92.0759 100.758 89.8334 98 89.8334ZM98 98.1668C96.1616 98.1668 94.6667 96.6717 94.6667 94.8334C94.6667 92.9951 96.1617 91.5001 98 91.5001C99.8384 91.5001 101.333 92.9952 101.333 94.8334C101.333 96.6717 99.8384 98.1668 98 98.1668Z"/>
<path d="M107.868 85.216L100.368 73.5493C100.214 73.3109 99.9503 73.1667 99.6669 73.1667H90.5003C90.0395 73.1667 89.667 73.5401 89.667 74.0001V94.8334C89.667 95.2942 90.0395 95.6667 90.5003 95.6667H93.8336V94H91.3336V74.8335H99.2119L106.334 85.9118V94.0002H102.167V95.6668H107.167C107.628 95.6668 108 95.2943 108 94.8335V85.6668C108 85.5076 107.955 85.3501 107.868 85.216Z"/>
<path d="M94.6666 84V78.1667H101.333V76.5H93.8333C93.3725 76.5 93 76.8733 93 77.3333V84.8333C93 85.2942 93.3725 85.6666 93.8333 85.6666H106.333V83.9999H94.6666V84Z"/>
<path d="M90.5001 67.3334H58.8333C58.3733 67.3334 58 67.7068 58 68.1667V94.8335C58 95.2943 58.3733 95.6668 58.8333 95.6668H65.5V94.0001H59.6667V69H89.6668V94.0001H73.8333V95.6668H90.5001C90.9609 95.6668 91.3334 95.2943 91.3334 94.8335V68.1667C91.3334 67.7068 90.9609 67.3334 90.5001 67.3334Z"/>
<path d="M63.833 90.6667H58.833V92.3334H63.833V90.6667Z"/>
<path d="M89.6667 90.6667H75.5V92.3334H89.6667V90.6667Z"/>
<path d="M107.167 90.6667H103.834V92.3334H107.167V90.6667Z"/>
<path d="M90.4998 70.6667H61.333V72.3334H90.4998V70.6667Z"/>
<path d="M70.4997 94.0001H68.833V95.6668H70.4997V94.0001Z"/>
<path d="M98.8337 94.0001H97.167V95.6668H98.8337V94.0001Z"/>
<path d="M72.9997 64H61.333V65.6667H72.9997V64Z"/>
<path d="M59.6667 64H58V65.6667H59.6667V64Z"/>

</g></symbol><symbol id="4" viewBox="0 0 157 163"><g>
<circle opacity="0.1" cx="100.861" cy="106.57" r="56.1394"/>
<circle opacity="0.1" cx="53.2848" cy="97.0545" r="53.2848"/>
<circle opacity="0.1" cx="90.3942" cy="53.2848" r="53.2848"/>
<circle cx="80.8786" cy="81.8303" r="56.1394"/>
<circle cx="80.8786" cy="81.8303" r="56.1394"/>
<path d="M55.5891 90.9728H68.8587V103.473C68.8587 104.853 69.9778 105.973 71.3584 105.973H91.3585C92.7394 105.973 93.8585 104.853 93.8585 103.473V83.4725C93.8585 82.0916 92.7394 80.9725 91.3585 80.9725H78.8585V67.7034C78.8573 67.2368 78.6705 66.79 78.3385 66.4626C78.0147 66.147 77.5798 65.9712 77.1278 65.9728H56.3587C54.9778 65.9728 53.8584 67.0918 53.8584 68.4725V89.2416C53.8596 89.7082 54.047 90.155 54.3784 90.4824C54.7025 90.798 55.1371 90.9737 55.5891 90.9728ZM75.5253 90.9728H76.3588C77.7394 90.9728 78.8585 89.8531 78.8585 88.4725V87.6391H87.1916V99.306H75.5253V90.9728ZM77.1919 88.4725C77.1919 88.9327 76.8187 89.306 76.3588 89.306H58.9033L77.1919 71.0176V88.4725ZM91.3585 82.6391C91.819 82.6391 92.1919 83.0123 92.1919 83.4725V103.473C92.1919 103.933 91.819 104.306 91.3585 104.306H71.3584C70.8982 104.306 70.5253 103.933 70.5253 103.473V90.9728H73.8585V99.306C73.8585 100.226 74.6046 100.973 75.5253 100.973H87.1916C88.1123 100.973 88.8588 100.226 88.8588 99.306V87.6391C88.8588 86.719 88.1123 85.9725 87.1916 85.9725H78.8585V82.6391H91.3585ZM77.1919 67.7034V68.6608L56.5467 89.306H55.5891L55.525 89.2416V87.9723L75.8537 67.6393H77.1278L77.1919 67.7034ZM56.3587 67.6393H73.4968L55.525 85.6109V68.4725C55.525 68.0123 55.8982 67.6393 56.3587 67.6393Z"/>
<path d="M86.1625 56.0991C85.5311 55.8382 84.8048 55.988 84.3293 56.4781L78.8581 62.2942C78.2142 62.9381 78.2066 63.98 78.8407 64.6333L84.3464 70.4842C84.8231 70.9609 85.54 71.1031 86.1625 70.8452C86.7854 70.5873 87.1913 69.98 87.1913 69.3059V66.8059H93.0247V73.4725H90.525C89.846 73.4725 89.2354 73.8845 88.9799 74.5134C88.7251 75.1424 88.8774 75.8635 89.3651 76.3356L95.1796 81.8059C95.4939 82.1203 95.9206 82.2967 96.3649 82.2957C96.7967 82.2976 97.2118 82.1279 97.5182 81.8236L103.37 76.3173C103.846 75.841 103.989 75.1241 103.731 74.5015C103.473 73.8787 102.865 73.4728 102.192 73.4725H99.6913V62.639C99.6913 61.2584 98.5722 60.1393 97.1916 60.1393H87.1913V57.639C87.1919 56.9649 86.7854 56.357 86.1625 56.0991ZM97.1916 61.8059C97.6515 61.8059 98.0248 62.1788 98.0248 62.639V74.3059C98.0248 74.7658 98.3977 75.139 98.8582 75.139L102.21 75.122L96.3399 80.6093L90.525 75.139H93.8582C94.3184 75.139 94.6913 74.7658 94.6913 74.3059V66.8059C94.6913 65.8852 93.9452 65.139 93.0247 65.139H86.3582C85.898 65.139 85.5247 65.5123 85.5247 65.9728L85.5424 69.3236L80.0547 63.4551L85.5247 57.639V60.9724C85.5247 61.4326 85.898 61.8059 86.3582 61.8059H97.1916Z"/>

</g></symbol><symbol id="5" viewBox="0 0 157 163"><g>
<circle opacity="0.1" cx="100.861" cy="106.57" r="56.1394"/>
<circle opacity="0.1" cx="53.2848" cy="97.0545" r="53.2848"/>
<circle opacity="0.1" cx="90.3942" cy="53.2848" r="53.2848"/>
<circle cx="80.8786" cy="81.8303" r="56.1394"/>
<circle cx="80.8786" cy="81.8303" r="56.1394"/>
<path d="M67.3327 101.833H65.666V103.5H67.3327V101.833Z"/>
<path d="M84.8322 91.833H70.6656V79.333C70.6656 79.112 70.5778 78.9001 70.4215 78.7438C70.2653 78.5875 70.0533 78.4997 69.8323 78.4997H54.8324C54.6113 78.4997 54.3994 78.5875 54.2431 78.7438C54.0868 78.9001 53.999 79.112 53.999 79.333V106C53.999 106.221 54.0868 106.433 54.2431 106.589C54.3994 106.745 54.6113 106.833 54.8324 106.833H84.8322C85.0532 106.833 85.2652 106.745 85.4215 106.589C85.5778 106.433 85.6655 106.221 85.6655 106V92.6663C85.6655 92.4453 85.5778 92.2333 85.4215 92.077C85.2652 91.9208 85.0532 91.833 84.8322 91.833ZM75.6656 93.4996H78.9989V96.8329H75.6656V93.4996ZM60.6657 80.1664H63.999V83.4997H60.6657V80.1664ZM55.6657 80.1664H58.999V84.333C58.999 84.554 59.0868 84.766 59.2431 84.9223C59.3994 85.0785 59.6113 85.1663 59.8323 85.1663H64.8323C65.0533 85.1663 65.2653 85.0785 65.4216 84.9223C65.5778 84.766 65.6656 84.554 65.6656 84.333V80.1664H68.999V91.833H55.6657V80.1664ZM60.6657 93.4996H63.999V96.8329H60.6657V93.4996ZM55.6657 93.4996H58.999V97.6663C58.999 97.8873 59.0868 98.0993 59.2431 98.2555C59.3994 98.4118 59.6113 98.4996 59.8323 98.4996H64.8323C65.0533 98.4996 65.2653 98.4118 65.4216 98.2555C65.5778 98.0993 65.6656 97.8873 65.6656 97.6663V93.4996H68.999V105.166H55.6657V93.4996ZM83.9989 105.166H70.6656V93.4996H73.9989V97.6663C73.9989 97.8873 74.0867 98.0993 74.243 98.2555C74.3993 98.4118 74.6112 98.4996 74.8323 98.4996H79.8322C80.0533 98.4996 80.2652 98.4118 80.4215 98.2555C80.5778 98.0993 80.6656 97.8873 80.6656 97.6663V93.4996H83.9989V105.166Z"/>
<path d="M82.3327 101.833H80.666V103.5H82.3327V101.833Z"/>
<path d="M67.3327 88.4996H65.666V90.1663H67.3327V88.4996Z"/>
<path d="M102.97 66.8097C103.034 66.8253 103.1 66.8331 103.166 66.8331C103.312 66.833 103.455 66.7946 103.582 66.7218C103.708 66.649 103.814 66.5442 103.887 66.4181C103.963 66.2848 104.001 66.1338 103.999 65.9806V62.6664C103.999 62.4794 103.936 62.2979 103.82 62.151C103.705 62.004 103.543 61.9003 103.361 61.8564L79.1945 56.0231C79.0661 55.992 78.932 55.992 78.8035 56.0231L54.6369 61.8564C54.4552 61.9003 54.2934 62.004 54.1778 62.151C54.0621 62.2979 53.9992 62.4794 53.9991 62.6664V65.9761C53.9963 66.1506 54.0462 66.3219 54.1423 66.4675C54.2376 66.6078 54.3734 66.7156 54.5316 66.7768C54.6898 66.8379 54.8628 66.8494 55.0277 66.8097L56.4991 66.4546V76.833H58.1658V66.0523L78.999 61.0236L99.8323 66.0523V105.166H94.8323V72.6664C94.8323 72.4454 94.7445 72.2334 94.5882 72.0771C94.4319 71.9208 94.22 71.833 93.999 71.833H63.9991C63.7781 71.833 63.5661 71.9208 63.4098 72.0771C63.2536 72.2334 63.1658 72.4454 63.1658 72.6664V75.9997C63.1658 76.2207 63.2536 76.4327 63.4098 76.5889C63.5661 76.7452 63.7781 76.833 63.9991 76.833H93.1656V78.4997H72.3324V80.1663H93.1656V81.833H72.3324V83.4997H93.1656V85.1663H72.3324V86.833H93.1656V105.166H87.3323V106.833H103.999V105.166H101.499V66.4546L102.97 66.8097ZM64.8324 75.1664V73.4997H93.1656V75.1664H64.8324ZM78.999 59.3331C78.9332 59.3331 78.8675 59.3409 78.8035 59.3564L55.6658 64.9413V63.3227L78.999 57.6904L102.332 63.3227V64.9414L79.1945 59.3564C79.1305 59.3409 79.0649 59.3331 78.999 59.3331Z"/>
<path d="M80.6653 69.333C81.3284 69.333 81.9643 69.0697 82.4331 68.6008C82.9019 68.132 83.1653 67.4961 83.1653 66.8331C83.1653 66.17 82.9019 65.5341 82.4331 65.0653C81.9643 64.5965 81.3284 64.3331 80.6653 64.3331H77.332C76.669 64.3331 76.0331 64.5965 75.5643 65.0653C75.0954 65.5341 74.832 66.17 74.832 66.8331C74.832 67.4961 75.0954 68.132 75.5643 68.6008C76.0331 69.0697 76.669 69.333 77.332 69.333H80.6653ZM76.4987 66.8331C76.4989 66.6121 76.5868 66.4003 76.743 66.2441C76.8993 66.0879 77.1111 66 77.332 65.9997H80.6653C80.8864 65.9997 81.0983 66.0875 81.2546 66.2438C81.4109 66.4001 81.4987 66.612 81.4987 66.8331C81.4987 67.0541 81.4109 67.266 81.2546 67.4223C81.0983 67.5786 80.8864 67.6664 80.6653 67.6664H77.332C77.1111 67.6661 76.8993 67.5783 76.743 67.422C76.5868 67.2658 76.4989 67.054 76.4987 66.8331Z"/>

</g></symbol><symbol id="6" viewBox="0 0 157 163"><g>
<circle opacity="0.1" cx="100.861" cy="106.57" r="56.1394"/>
<circle opacity="0.1" cx="53.2848" cy="97.0545" r="53.2848"/>
<circle opacity="0.1" cx="90.3942" cy="53.2848" r="53.2848"/>
<circle cx="81.1394" cy="82.1394" r="56.1394"/>
<circle cx="81.1394" cy="82.1394" r="56.1394"/>
<path d="M91.6744 76.5239C94.2131 72.871 95.8534 68.2642 96.0631 64.2886H97.5466C98.017 64.2886 98.3989 63.9074 98.3989 63.4364V57.8523C98.3989 57.3812 98.017 57 97.5466 57H63.8523C63.3818 57 63 57.3812 63 57.8523V63.4364C63 63.9074 63.3818 64.2886 63.8523 64.2886H65.3358C65.5455 68.2642 67.1858 72.871 69.7239 76.5233C71.4131 78.9545 73.3648 80.8193 75.4437 82.0011C73.3653 83.1801 71.4131 85.0432 69.7244 87.4761C67.1858 91.129 65.5455 95.7358 65.3358 99.7114H63.8523C63.3818 99.7114 63 100.093 63 100.564V106.148C63 106.619 63.3818 107 63.8523 107H97.5472C98.0176 107 98.3994 106.619 98.3994 106.148V100.564C98.3994 100.093 98.0176 99.7114 97.5472 99.7114H96.0631C95.8534 95.7358 94.2131 91.129 91.675 87.4767C89.9864 85.0449 88.033 83.1812 85.9511 82.0017C88.0341 80.8182 89.9875 78.954 91.6744 76.5239ZM64.7045 62.5841V58.7045H96.6949V62.5841M96.6943 101.416V105.295H64.7045V101.416M83.6574 81.2057C82.9352 81.4517 82.9369 82.5551 83.6585 82.8006C86.046 83.7 88.3341 85.6534 90.275 88.4489H90.2756C92.6239 91.8284 94.1477 96.0631 94.3585 99.7114H67.0409C67.2511 96.0636 68.7756 91.8284 71.1244 88.4489C73.067 85.6517 75.3528 83.6983 77.7358 82.8006C78.4574 82.5551 78.4591 81.4523 77.7369 81.2057C75.3528 80.3023 73.0659 78.3472 71.1239 75.5511C68.7756 72.1716 67.2517 67.9369 67.0409 64.2886H94.358C94.1477 67.9364 92.6233 72.1716 90.2744 75.5511C88.3352 78.3449 86.0472 80.3 83.6574 81.2057Z"/>
<path d="M69.8154 97.3994C69.8154 97.8704 70.1972 98.2517 70.6677 98.2517H90.7313C91.2018 98.2517 91.5836 97.8704 91.5836 97.3994C91.5836 94.4318 89.1694 92.0176 86.2012 92.0176H75.1972C72.2296 92.017 69.8154 94.4312 69.8154 97.3994ZM89.7791 96.5472H71.62C72.0052 94.929 73.4632 93.7222 75.1978 93.7222H86.2018C87.9359 93.7216 89.3944 94.929 89.7791 96.5472Z"/>
<path d="M89.5615 67.5926H71.8376C71.3672 67.5926 70.9854 67.9739 70.9854 68.4449C70.9854 73.7761 75.3183 80.2148 80.6996 80.2148C86.0808 80.2148 90.4138 73.7756 90.4138 68.4449C90.4138 67.9739 90.0319 67.5926 89.5615 67.5926ZM80.6996 78.5102C76.6535 78.5102 73.1507 73.6403 72.7319 69.2972H88.6677C88.2484 73.6403 84.7456 78.5102 80.6996 78.5102Z"/>
<path d="M80.6999 84.2722C81.1704 84.2722 81.5522 83.8909 81.5522 83.4199V82C81.5522 81.529 81.1704 81.1477 80.6999 81.1477C80.2295 81.1477 79.8477 81.529 79.8477 82V83.4199C79.8477 83.8903 80.2295 84.2722 80.6999 84.2722Z"/>
<path d="M79.8477 88.0841C79.8477 88.5551 80.2295 88.9364 80.6999 88.9364C81.1704 88.9364 81.5522 88.5551 81.5522 88.0841V87.1017C81.5522 86.6307 81.1704 86.2495 80.6999 86.2495C80.2295 86.2495 79.8477 86.6307 79.8477 87.1017V88.0841Z"/>

</g></symbol><symbol id="phone-icon" viewBox="0 0 33 33"><g>
<circle cx="16.5" cy="16.5" r="16.5"/>
<path d="M23.6616 20.453C23.6209 20.3304 23.3621 20.1499 22.8852 19.9117C22.756 19.8366 22.5719 19.7346 22.3338 19.6052C22.0954 19.4757 21.879 19.3565 21.685 19.2475C21.4906 19.1385 21.3085 19.033 21.1383 18.9309C21.1111 18.9105 21.026 18.851 20.883 18.752C20.7398 18.6533 20.6191 18.5801 20.5201 18.5323C20.4214 18.4848 20.3243 18.4609 20.2289 18.4609C20.0927 18.4609 19.9226 18.5581 19.7183 18.752C19.5141 18.9463 19.3267 19.1572 19.1565 19.3856C18.9863 19.6139 18.8057 19.8248 18.6152 20.019C18.4244 20.2132 18.2676 20.3102 18.1452 20.3102C18.0837 20.3102 18.007 20.293 17.9152 20.2592C17.8234 20.2252 17.7535 20.196 17.7056 20.1725C17.658 20.1485 17.5765 20.101 17.4606 20.0292C17.3445 19.9577 17.28 19.9185 17.2664 19.9117C16.3333 19.3939 15.533 18.8014 14.8654 18.1341C14.1981 17.4665 13.6054 16.6664 13.0878 15.7332C13.081 15.7196 13.0417 15.6549 12.9703 15.5391C12.8987 15.4233 12.851 15.3417 12.8272 15.2939C12.8033 15.2463 12.7744 15.1764 12.7404 15.0845C12.7064 14.9926 12.6893 14.916 12.6893 14.8546C12.6893 14.7321 12.7864 14.5754 12.9805 14.3846C13.1746 14.194 13.3858 14.0135 13.6139 13.8433C13.8422 13.6732 14.0532 13.4858 14.2474 13.2816C14.4415 13.0772 14.5385 12.907 14.5385 12.7708C14.5385 12.6756 14.5147 12.5784 14.4671 12.4797C14.4194 12.3807 14.3462 12.26 14.2474 12.1169C14.1485 11.9739 14.0889 11.8888 14.0685 11.8615C13.9664 11.6913 13.861 11.5091 13.7519 11.315C13.6427 11.1209 13.5237 10.9046 13.3942 10.6663C13.2648 10.428 13.1627 10.2441 13.0877 10.1147C12.8495 9.638 12.669 9.37908 12.5464 9.33835C12.4987 9.31792 12.4271 9.30762 12.3318 9.30762C12.1478 9.30762 11.9078 9.34161 11.6115 9.40981C11.3152 9.47791 11.0819 9.54933 10.9116 9.62437C10.5711 9.76732 10.2101 10.1828 9.82865 10.8705C9.48128 11.5106 9.30762 12.1441 9.30762 12.7707C9.30762 12.9544 9.31953 13.1332 9.34337 13.307C9.3672 13.4807 9.40978 13.6765 9.47115 13.8945C9.53242 14.1124 9.58184 14.2743 9.6192 14.3797C9.65659 14.4852 9.72641 14.6742 9.82861 14.9467C9.93067 15.2191 9.99204 15.3859 10.0125 15.4472C10.2508 16.1147 10.5335 16.7106 10.8604 17.2351C11.3982 18.1068 12.1322 19.0077 13.0619 19.9374C13.9917 20.867 14.8924 21.6009 15.7643 22.139C16.2887 22.4658 16.8849 22.7484 17.5523 22.987C17.6136 23.0073 17.7804 23.0685 18.0528 23.1709C18.3252 23.273 18.5143 23.3429 18.6198 23.3803C18.7253 23.4178 18.8872 23.4673 19.105 23.5286C19.3232 23.59 19.5189 23.6326 19.6925 23.6566C19.8663 23.6801 20.0451 23.6922 20.2289 23.6922C20.8555 23.6922 21.4891 23.5185 22.1293 23.1712C22.817 22.7899 23.2324 22.4289 23.3754 22.0881C23.4506 21.9179 23.5219 21.6847 23.59 21.3883C23.6583 21.0921 23.6922 20.8521 23.6922 20.6682C23.6924 20.5725 23.6822 20.5011 23.6616 20.453Z"/>
</g></symbol></svg>