<svg width="14" height="11" fill="none" xmlns="http://www.w3.org/2000/svg"><path d="M.162 6.05A.6.6 0 010 5.665a.6.6 0 01.162-.385l.753-.77a.513.513 0 01.754 0l.054.055L4.685 7.81c.107.11.269.11.377 0L12.277.165h.054a.513.513 0 01.754 0l.753.77a.54.54 0 010 .77l-8.615 9.13a.484.484 0 01-.377.165.484.484 0 01-.377-.165l-4.2-4.62-.107-.165z" fill="url(#paint0_linear_5_4415)"/><defs><linearGradient id="paint0_linear_5_4415" x1="7" y1="0" x2="7" y2="11" gradientUnits="userSpaceOnUse"><stop stop-color="#48FFFF"/><stop offset=".963" stop-color="#25A4F1"/></linearGradient></defs></svg>